<svg width="28" height="28" viewBox="0 0 28 28" fill="none" xmlns="http://www.w3.org/2000/svg">
<path d="M14 21.7858C13.7499 21.7858 13.5471 21.5831 13.5471 21.3329V6.6671C13.5471 6.417 13.7499 6.21423 14 6.21423C14.2502 6.21423 14.4529 6.417 14.4529 6.6671V21.333C14.4529 21.5831 14.2502 21.7858 14 21.7858ZM21.3327 14.453H15.5228C15.2727 14.453 15.07 14.2502 15.07 14.0001C15.07 13.75 15.2727 13.5473 15.5228 13.5473H21.3327C21.5828 13.5473 21.7855 13.75 21.7855 14.0001C21.7855 14.2502 21.5828 14.453 21.3327 14.453Z" fill="#888888"/>
<path d="M21.3329 14.453C21.217 14.453 21.1011 14.4088 21.0126 14.3204L18.9956 12.3033C18.8188 12.1265 18.8188 11.8397 18.9956 11.6629C19.1726 11.4861 19.4593 11.4861 19.6361 11.6629L21.6531 13.68C21.83 13.8568 21.83 14.1436 21.6531 14.3204C21.5647 14.4088 21.4488 14.453 21.3329 14.453Z" fill="#888888"/>
<path d="M19.3159 16.4699C19.2 16.4699 19.0841 16.4257 18.9956 16.3373C18.8188 16.1604 18.8188 15.8737 18.9956 15.6968L21.0126 13.6799C21.1896 13.503 21.4763 13.503 21.6531 13.6799C21.8299 13.8568 21.83 14.1435 21.6531 14.3203L19.6361 16.3373C19.5477 16.4257 19.4318 16.4699 19.3159 16.4699Z" fill="#888888"/>
<path d="M12.4772 14.4528H6.66725C6.41715 14.4528 6.21439 14.2501 6.21439 14C6.21439 13.7498 6.41715 13.5471 6.66725 13.5471H12.4772C12.7273 13.5471 12.9301 13.7499 12.9301 14C12.9301 14.2501 12.7273 14.4528 12.4772 14.4528Z" fill="#888888"/>
<path d="M8.68419 16.47C8.56831 16.47 8.45238 16.4258 8.36398 16.3374L6.34688 14.3203C6.17002 14.1435 6.17002 13.8568 6.34688 13.6799C6.52373 13.503 6.81049 13.503 6.98728 13.6799L9.00439 15.6969C9.18125 15.8737 9.18125 16.1605 9.00439 16.3373C8.91599 16.4258 8.80006 16.47 8.68419 16.47Z" fill="#888888"/>
<path d="M6.66709 14.4529C6.55121 14.4529 6.43528 14.4088 6.34682 14.3203C6.16997 14.1435 6.17003 13.8567 6.34682 13.6799L8.36393 11.6629C8.54079 11.4861 8.82754 11.4861 9.0044 11.6629C9.18125 11.8397 9.18119 12.1265 9.0044 12.3033L6.98729 14.3203C6.89889 14.4088 6.78296 14.4529 6.66709 14.4529Z" fill="#888888"/>
<path d="M24.5281 28H3.47194C1.55748 28 0 26.4425 0 24.5281V3.47194C0 1.55748 1.55748 0 3.47194 0H24.5281C26.4426 0 28.0001 1.55748 28.0001 3.47194V24.5281C28 26.4425 26.4425 28 24.5281 28ZM3.47194 0.905723C2.0569 0.905723 0.905723 2.0569 0.905723 3.47194V24.5281C0.905723 25.9432 2.0569 27.0943 3.47194 27.0943H24.5281C25.9432 27.0943 27.0943 25.9432 27.0943 24.5281V3.47194C27.0943 2.0569 25.9432 0.905723 24.5281 0.905723H3.47194Z" fill="#888888"/>
<path d="M24.5281 28H3.47194C1.55748 28 0 26.4425 0 24.5281V3.47194C0 1.55748 1.55748 0 3.47194 0H24.5281C26.4426 0 28.0001 1.55748 28.0001 3.47194V24.5281C28 26.4425 26.4425 28 24.5281 28ZM3.47194 0.905723C2.0569 0.905723 0.905723 2.0569 0.905723 3.47194V24.5281C0.905723 25.9432 2.0569 27.0943 3.47194 27.0943H24.5281C25.9432 27.0943 27.0943 25.9432 27.0943 24.5281V3.47194C27.0943 2.0569 25.9432 0.905723 24.5281 0.905723H3.47194Z" fill="#888888"/>
</svg>
