<svg width="175" height="129" viewBox="0 0 175 129" fill="none" xmlns="http://www.w3.org/2000/svg">
<path fill-rule="evenodd" clip-rule="evenodd" d="M2.90792 76.2273C1.30375 76.2273 0 74.905 0 73.2867V2.94061C0 1.31932 1.3125 0 2.9225 0H72.835C74.4479 0 75.7604 1.32225 75.7604 2.94061L75.8333 76.2273C74.2408 105.63 50.0442 129 20.4167 129H20.4079C18.8038 129 17.5 127.663 17.5 126.083V102.599C17.5038 101.825 17.8116 101.085 18.3563 100.538C18.901 99.992 19.6384 99.6841 20.4079 99.6818H20.4167C33.9296 99.6818 45.0567 89.4205 46.5062 76.2273H2.90792ZM102.075 76.2273C100.47 76.2273 99.1667 74.905 99.1667 73.2867V2.94061C99.1667 1.31932 100.479 0 102.089 0H172.002C173.615 0 174.927 1.32225 174.927 2.94061L175 76.2273C173.408 105.63 149.211 129 119.583 129H119.575C117.97 129 116.667 127.663 116.667 126.083V102.599C116.671 101.825 116.978 101.085 117.523 100.538C118.068 99.992 118.805 99.6841 119.575 99.6818H119.583C133.096 99.6818 144.223 89.4205 145.673 76.2273H102.075Z" fill="#0E1F39"/>
</svg>
