<svg width="40" height="30" viewBox="0 0 40 30" fill="none" xmlns="http://www.w3.org/2000/svg">
<path d="M29.7478 3.63529C30.2435 3.14118 31.2348 3.14118 31.7304 3.63529L32.3913 4.29412L17.5217 19.1176L16.8609 18.4588C16.3652 17.9647 16.3652 16.9765 16.8609 16.4824M29.7478 3.63529L16.8609 16.4824M29.7478 3.63529C28.0957 1.98824 25.7826 1 23.3043 1C21.487 1 19.6696 1.49412 18.1826 2.48235C17.1913 1.49412 15.7043 1 14.3826 1H11.4087C8.93043 1 6.61739 1.98823 4.8 3.8H4.63478C2.32174 6.27059 1 9.4 1 12.8588V29H4.30435V13.5176C4.30435 10.7176 5.46087 8.08235 7.44348 6.10588C8.6 4.95294 10.2522 4.29412 11.9043 4.29412H13.887C14.5478 4.29412 15.2087 4.62353 15.7043 4.95294C13.3913 8.57647 13.7217 13.3529 16.8609 16.4824M24.1304 17.4706L25.7826 22.4118M27.4348 14.1765L30.7391 17.4706M30.7391 10.8824L35.6957 12.5294M29.087 20.7647L32.3913 25.7059M34.0435 15.8235L39 19.1176" stroke="#888888" stroke-width="1.5" stroke-linecap="round" stroke-linejoin="round"/>
</svg>
