<svg width="35" height="28" viewBox="0 0 35 28" fill="none" xmlns="http://www.w3.org/2000/svg">
<path d="M32.2 14.2489V2.43263C32.2002 2.27914 32.1487 2.12994 32.0535 2.00857C31.9583 1.8872 31.8249 1.80057 31.6743 1.76235C22.3747 -0.587451 12.6253 -0.587451 3.3257 1.76235C3.17511 1.80057 3.04169 1.8872 2.9465 2.00857C2.85131 2.12994 2.79977 2.27914 2.8 2.43263V14.2489C1.204 14.5702 0 15.9661 0 17.6349V27.309C0 27.4923 0.0737499 27.668 0.205025 27.7976C0.336301 27.9272 0.514348 28 0.7 28H4.3036C4.48925 28 4.6673 27.9272 4.79857 27.7976C4.92985 27.668 5.0036 27.4923 5.0036 27.309V24.545H29.9964V27.309C29.9964 27.4923 30.0702 27.668 30.2014 27.7976C30.3327 27.9272 30.5107 28 30.6964 28H34.3C34.4856 28 34.6637 27.9272 34.795 27.7976C34.9263 27.668 35 27.4923 35 27.309V17.6349C34.9991 16.8386 34.7201 16.0671 34.2101 15.4503C33.7 14.8335 32.9901 14.4092 32.2 14.2489ZM4.2 2.97162C12.9368 0.852708 22.0632 0.852708 30.8 2.97162V14.1798H29.3986V12.6893C29.3979 12.0653 29.1464 11.4671 28.6995 11.0259C28.2525 10.5846 27.6465 10.3364 27.0144 10.3357H21.1953C20.5632 10.3364 19.9572 10.5846 19.5102 11.0259C19.0633 11.4671 18.8118 12.0653 18.8111 12.6893V14.1798H16.1889V12.6893C16.1882 12.0653 15.9367 11.4671 15.4898 11.0259C15.0428 10.5846 14.4368 10.3364 13.8047 10.3357H7.987C7.35478 10.3363 6.7486 10.5844 6.30148 11.0256C5.85437 11.4669 5.60284 12.0652 5.6021 12.6893V14.1798H4.2V2.97162ZM27.9986 12.6893V14.1798H20.2111V12.6893C20.2111 12.1538 20.6521 11.7177 21.1953 11.7177H27.0144C27.5569 11.7177 27.9986 12.1531 27.9986 12.6893ZM14.7896 12.6893V14.1798H7.0007V12.6893C7.0007 12.1538 7.4424 11.7177 7.9856 11.7177H13.804C14.3472 11.7177 14.7882 12.1531 14.7882 12.6893H14.7896ZM33.6 26.618H31.3964V23.8539C31.3964 23.6707 31.3226 23.4949 31.1914 23.3653C31.0601 23.2357 30.8821 23.1629 30.6964 23.1629H4.3036C4.11795 23.1629 3.9399 23.2357 3.80863 23.3653C3.67735 23.4949 3.6036 23.6707 3.6036 23.8539V26.618H1.4V20.3989H33.6V26.618ZM33.6 19.0169H1.4V17.6349C1.4 16.4912 2.3422 15.5618 3.5 15.5618H31.5C32.6578 15.5618 33.6 16.4912 33.6 17.6349V19.0169Z" fill="#888888"/>
</svg>
