<svg width="99" height="92" viewBox="0 0 99 92" fill="none" xmlns="http://www.w3.org/2000/svg">
<circle cx="68" cy="61" r="31" fill="#32A7E2"/>
<path d="M82.931 48.7953H14.1145C13.5238 48.7953 13.0437 49.2764 13.0437 49.8685V61.7145V69.6631H12.221V66.6636C12.221 66.0715 11.741 65.5904 11.1503 65.5904H1.07077C0.480061 65.5904 0 66.0715 0 66.6636V86.9268C0 87.5189 0.480061 88 1.07077 88H11.1485C11.7392 88 12.2193 87.5189 12.2193 86.9268V84.3369H39.622C41.5173 84.3369 43.1734 83.9076 44.8331 82.9883L59.897 74.6337H82.9292C83.5199 74.6337 84 74.1525 84 73.5605V61.7145V49.8685C84.0018 49.2746 83.5217 48.7953 82.931 48.7953ZM54.4486 50.9416L53.5241 55.4579H43.5196L42.5952 50.9416H54.4486ZM15.1853 50.9416H40.409L41.5976 56.7475C41.6993 57.2465 42.1383 57.6042 42.6469 57.6042H54.3986C54.9072 57.6042 55.3445 57.2465 55.448 56.7475L56.6365 50.9416H81.8602V60.6413H43.5321C43.3322 59.4304 42.7665 58.3161 41.8885 57.4343C40.7749 56.3182 39.2918 55.7047 37.7089 55.7047C36.1259 55.7047 34.6411 56.3182 33.5293 57.4343C32.4996 58.4663 31.4467 59.5413 30.4295 60.5823C30.4098 60.6019 30.3902 60.6216 30.3706 60.6413H15.1853V50.9416ZM43.5018 62.7876H54.4504L53.5259 67.3039H43.5214L42.9289 64.4081C43.1966 63.902 43.3893 63.3564 43.5018 62.7876ZM28.2629 62.7876C27.5562 63.5031 26.8442 64.2167 26.1375 64.9143C25.2791 65.7603 24.1922 66.1252 22.9983 65.9678C22.7681 65.9374 22.5343 65.9231 22.3023 65.9231C20.6105 65.9231 19.0061 66.7405 18.0085 68.1106C17.3125 69.0657 16.3399 69.5969 15.1853 69.6577V62.7876H28.2629ZM10.0777 85.8537H2.14154V67.7385H10.0777V85.8537ZM43.798 81.1102C42.4506 81.8579 41.1621 82.1906 39.6238 82.1906H12.2193V71.8094H14.9569C16.8949 71.8094 18.5921 70.9455 19.736 69.3751C20.3321 68.5559 21.2904 68.0676 22.3005 68.0676C22.4397 68.0676 22.5807 68.0766 22.7181 68.0945C24.5634 68.3359 26.3106 67.7511 27.6365 66.4436C29.0856 65.0145 30.5437 63.5246 31.9553 62.0829C32.969 61.0473 34.0183 59.9741 35.0409 58.9493C35.7494 58.2392 36.6952 57.8493 37.7071 57.8493C38.7172 57.8493 39.6648 58.241 40.3733 58.9511C41.0818 59.6611 41.4709 60.6091 41.4709 61.6232C41.4709 62.6356 41.08 63.5854 40.3733 64.2954L33.2652 71.4195C32.7263 71.9597 32.5656 72.7663 32.8583 73.4728C33.1492 74.1793 33.8309 74.6354 34.5947 74.6354H55.4765L43.798 81.1102ZM59.6222 72.4891H35.2283L41.1746 66.5294L41.5976 68.5935C41.6993 69.0925 42.1383 69.4502 42.6469 69.4502H54.3986C54.9072 69.4502 55.3445 69.0925 55.448 68.5935L56.6365 62.7876H81.8602V72.4873H59.6222V72.4891ZM34.2378 24.293C32.1248 24.293 30.4045 26.0172 30.4045 28.135C30.4045 30.2527 32.1248 31.9769 34.2378 31.9769C36.3508 31.9769 38.0712 30.2527 38.0712 28.135C38.0712 26.0172 36.3508 24.293 34.2378 24.293ZM34.2378 29.8306C33.3045 29.8306 32.546 29.0704 32.546 28.135C32.546 27.1995 33.3045 26.4394 34.2378 26.4394C35.1712 26.4394 35.9296 27.1995 35.9296 28.135C35.9296 29.0704 35.1694 29.8306 34.2378 29.8306ZM82.931 0H72.8533C72.2626 0 71.7825 0.481138 71.7825 1.07317V3.66309H44.378C42.481 3.66309 40.8248 4.09236 39.1669 5.01171L24.103 13.3663H8.27704C7.68633 13.3663 7.20627 13.8475 7.20627 14.4395V41.8322C7.20627 42.4242 7.68633 42.9054 8.27704 42.9054H60.1968C60.7875 42.9054 61.2676 42.4242 61.2676 41.8322V22.0572C61.4104 22.068 61.5549 22.0769 61.6995 22.0769C63.3895 22.0769 64.9956 21.2595 65.9932 19.8894C66.7339 18.8735 67.7886 18.3369 69.0432 18.3369H71.7807V21.3364C71.7807 21.9285 72.2608 22.4096 72.8515 22.4096H82.9292C83.5199 22.4096 84 21.9285 84 21.3364V1.07317C84.0018 0.481138 83.5217 0 82.931 0ZM9.34781 40.7572V15.5109H24.3796H48.7735L45.2596 19.0327H18.3101C17.7194 19.0327 17.2394 19.5138 17.2394 20.1059C17.2394 21.9338 15.7564 23.4202 13.9325 23.4202C13.3418 23.4202 12.8617 23.9013 12.8617 24.4933V31.7748C12.8617 32.3668 13.3418 32.848 13.9325 32.848C15.7564 32.848 17.2394 34.3343 17.2394 36.1623C17.2394 36.7543 17.7194 37.2354 18.3101 37.2354H50.1637C50.7544 37.2354 51.2345 36.7543 51.2345 36.1623C51.2345 34.3343 52.7175 32.848 54.5414 32.848C55.1321 32.848 55.6121 32.3668 55.6121 31.7748V25.3393C56.3617 24.581 57.1148 23.8244 57.8625 23.0857C58.2427 22.7119 58.6674 22.4311 59.126 22.2486V40.7572H9.34781ZM42.1133 30.5657C43.2662 31.7211 44.7795 32.2989 46.2929 32.2989C47.8062 32.2989 49.3196 31.7211 50.4725 30.5657C51.4683 29.5676 52.4837 28.5302 53.4706 27.5215V30.8072C51.3237 31.2382 49.6283 32.9374 49.1982 35.0891H19.2756C18.8455 32.9374 17.1501 31.2382 15.0033 30.8072V25.461C17.1501 25.0299 18.8455 23.3307 19.2756 21.179H43.1181L42.1133 22.186C40.9997 23.3003 40.3876 24.7885 40.3876 26.375C40.3876 27.9615 41.0015 29.4496 42.1133 30.5657ZM69.0432 16.1906C67.1051 16.1906 65.4079 17.0545 64.264 18.6249C63.6679 19.4441 62.7096 19.9324 61.6995 19.9324C61.5603 19.9324 61.4193 19.9234 61.2819 19.9055C59.4348 19.6641 57.6894 20.2489 56.3617 21.5564C54.9126 22.9837 53.4545 24.4737 52.0465 25.9135C51.031 26.9509 49.9817 28.0241 48.9591 29.0489C47.4886 30.521 45.0972 30.521 43.6285 29.0489C42.1579 27.5751 42.1579 25.1784 43.6285 23.7063L50.7366 16.5823C51.2755 16.0421 51.4361 15.2354 51.1435 14.5307C50.8526 13.8242 50.1709 13.3681 49.407 13.3681H28.5271L40.2038 6.89154C41.5512 6.1439 42.8379 5.81122 44.378 5.81122H71.7807V16.1924H69.0432V16.1906ZM81.8602 20.2615H73.9241V2.14634H81.8602V20.2615Z" fill="#040C22"/>
</svg>
