<svg width="11" height="6" viewBox="0 0 11 6" fill="none" xmlns="http://www.w3.org/2000/svg">
<path fill-rule="evenodd" clip-rule="evenodd" d="M0.160705 0.199894C0.0575262 0.307643 -2.42573e-07 0.450566 -2.36078e-07 0.599161C-2.29583e-07 0.747755 0.0575262 0.890678 0.160705 0.998428L4.70588 5.66909C4.80607 5.77364 4.92666 5.85689 5.0603 5.91378C5.19395 5.97066 5.33787 6 5.4833 6C5.62874 6 5.77266 5.97066 5.90631 5.91378C6.03995 5.85689 6.16054 5.77364 6.26073 5.66909L10.8395 0.96461C11.0512 0.746431 11.054 0.392982 10.845 0.17153C10.7952 0.117916 10.7348 0.0750241 10.6676 0.0455189C10.6004 0.0160136 10.5278 0.000524538 10.4543 1.28945e-05C10.3808 -0.000498272 10.308 0.0139785 10.2403 0.0425453C10.1727 0.0711127 10.1118 0.113159 10.0612 0.166075L5.87188 4.47129C5.82178 4.52361 5.76147 4.56527 5.69462 4.59374C5.62777 4.62221 5.55578 4.63689 5.48303 4.63689C5.41028 4.63689 5.33829 4.62221 5.27144 4.59374C5.20459 4.56527 5.14428 4.52361 5.09418 4.47129L0.937851 0.200439C0.887801 0.148136 0.827539 0.106485 0.760736 0.078022C0.693932 0.0495596 0.621985 0.0348811 0.549278 0.0348811C0.47657 0.0348811 0.404623 0.0495596 0.33782 0.078022C0.271016 0.106485 0.210754 0.147591 0.160705 0.199894Z" fill="white"/>
</svg>
