<svg width="33" height="30" viewBox="0 0 33 30" fill="none" xmlns="http://www.w3.org/2000/svg">
<path d="M0 3.48485C0 2.47473 0.371632 1.64139 1.11486 0.984848C1.8581 0.328273 2.82433 0 4.01351 0C5.18148 0 6.12644 0.323212 6.84846 0.969697C7.59169 1.63636 7.96332 2.50503 7.96332 3.57576C7.96332 4.54545 7.60233 5.35352 6.88031 6C6.13708 6.66667 5.16023 7 3.94981 7H3.91795C2.74999 7 1.80503 6.66667 1.08301 6C0.360993 5.33333 0 4.49494 0 3.48485ZM0.414093 30V9.75758H7.48552V30H0.414093ZM11.4035 30H18.4749V18.697C18.4749 17.9899 18.5599 17.4444 18.7297 17.0606C19.027 16.3737 19.4783 15.7929 20.0835 15.3182C20.6887 14.8434 21.4479 14.6061 22.361 14.6061C24.7394 14.6061 25.9286 16.1313 25.9286 19.1818V30H33V18.3939C33 15.404 32.2568 13.1364 30.7703 11.5909C29.2838 10.0455 27.3195 9.27273 24.8774 9.27273C22.138 9.27273 20.0039 10.3939 18.4749 12.6364V12.697H18.4431L18.4749 12.6364V9.75758H11.4035C11.4459 10.404 11.4672 12.4141 11.4672 15.7879C11.4672 19.1616 11.4459 23.899 11.4035 30Z" fill="#32A7E2"/>
</svg>
