<svg width="96" height="92" viewBox="0 0 96 92" fill="none" xmlns="http://www.w3.org/2000/svg">
<circle cx="65" cy="61" r="31" fill="#32A7E2"/>
<path d="M6.69757 72.2563C7.26614 73.0842 8.02797 73.7611 8.91709 74.2283C9.8062 74.6955 10.7958 74.9389 11.8002 74.9375C13.0508 74.938 14.2718 74.5577 15.3009 73.8471C18.1163 71.9125 18.8285 68.0591 16.8932 65.2424C16.3243 64.4147 15.5622 63.7381 14.673 63.2712C13.7838 62.8042 12.7942 62.561 11.7899 62.5625C11.3526 62.5625 10.9168 62.6258 10.485 62.7193C9.98738 61.2392 9.73337 59.6882 9.73288 58.1268C9.73288 54.1523 11.3396 50.5863 13.873 48.1236C15.0605 49.0142 16.5041 49.497 17.9884 49.5C19.378 49.5004 20.7348 49.0777 21.8783 48.2879C25.0064 46.1381 25.7977 41.8571 23.6479 38.7276C23.0156 37.808 22.1688 37.0564 21.1808 36.5376C20.1928 36.0188 19.0933 35.7485 17.9774 35.75C16.634 35.75 15.2769 36.1419 14.0868 36.9614C11.1086 39.0081 10.2554 42.9853 12.0367 46.0618C8.93813 49.0284 6.98288 53.3369 6.98288 58.1268C6.98288 60.1164 7.3335 62.0661 7.9825 63.8866C5.42913 65.8838 4.83513 69.5482 6.69757 72.2563ZM20.319 46.0226C19.7198 46.4371 19.0208 46.6842 18.2942 46.7383C17.5677 46.7925 16.8398 46.6517 16.1858 46.3306C17.8087 45.365 19.6435 44.8117 21.5297 44.7191C21.227 45.2372 20.8132 45.6823 20.319 46.0226ZM13.928 41.8743C14.0248 41.3413 14.2264 40.8329 14.5212 40.3786C14.816 39.9242 15.1981 39.5329 15.6454 39.2274C16.3307 38.7535 17.1442 38.4998 17.9774 38.5C18.6469 38.4995 19.3065 38.6616 19.8994 38.9725C20.4924 39.2834 21.0009 39.7338 21.3812 40.2848C21.7211 40.7808 21.9478 41.3455 22.0453 41.9389C19.1819 41.9519 16.5041 42.8196 14.2236 44.3169C13.877 43.5523 13.7738 42.6995 13.928 41.8743ZM11.7899 65.3125C12.9256 65.3125 13.9858 65.8694 14.6265 66.8003C14.8818 67.1699 15.0617 67.5862 15.156 68.0254C15.2502 68.4646 15.257 68.918 15.1758 69.3598C15.0973 69.2391 15.0001 69.1317 14.8878 69.0415C13.5884 68.0261 12.5042 66.7556 11.6675 65.3221C11.7088 65.3201 11.7493 65.3125 11.7899 65.3125ZM13.1944 71.2085C13.3973 71.3666 13.6331 71.4423 13.8709 71.4725C13.8263 71.5069 13.7891 71.5488 13.7417 71.5818C13.1711 71.9764 12.4939 72.1877 11.8002 72.1875C10.6658 72.1875 9.60432 71.6306 8.96357 70.6984C8.53194 70.0767 8.31997 69.3288 8.36118 68.5731C8.4024 67.8174 8.69445 67.097 9.19113 66.5259C10.2155 68.3327 11.5651 69.9353 13.1944 71.2085Z" fill="#040C22"/>
<path d="M5.2229 51.9166C5.57024 50.8572 6.00819 49.8297 6.5319 48.8455C2.08172 40.9365 4.2659 30.7196 11.772 25.4705C14.6733 23.441 18.0585 22.3685 21.562 22.3685C24.7727 22.3685 27.9145 23.2684 30.646 24.9693C31.1033 25.2545 31.6343 25.3988 32.1731 25.3844C32.7118 25.37 33.2344 25.1974 33.6758 24.8882L64.957 2.99957C65.12 2.89576 65.6019 2.75001 65.8453 2.75001C65.9133 2.75482 65.9814 2.75688 66.0495 2.75688H66.0515L73.9296 2.75138L71.6306 12.0835L70.433 12.9209L65.0292 11.7576C64.669 11.6799 64.2967 11.6754 63.9347 11.7445C63.5727 11.8136 63.2283 11.9548 62.922 12.1598C62.6157 12.3647 62.3537 12.6291 62.1515 12.9372C61.9493 13.2453 61.8111 13.5909 61.745 13.9535L60.9716 18.2043L56.5578 16.9455C56.1517 16.8296 55.7244 16.8089 55.309 16.885C54.8936 16.9611 54.5013 17.1319 54.1626 17.3841C53.8236 17.6362 53.5472 17.963 53.3549 18.3392C53.1626 18.7154 53.0595 19.1308 53.0537 19.5532L53.0028 23.3241L49.2119 22.3293C48.8405 22.2316 48.4526 22.2128 48.0735 22.2741C47.6943 22.3355 47.3322 22.4756 47.0106 22.6855C46.6889 22.8953 46.4147 23.1703 46.2059 23.4926C45.997 23.8149 45.858 24.1775 45.7978 24.5568L44.7411 31.1878L39.8715 34.5923C39.4499 34.8871 39.1195 35.2942 38.9178 35.7675C38.716 36.2407 38.6511 36.7611 38.7303 37.2694C39.776 43.9821 36.9008 50.8028 31.4057 54.6459C28.5017 56.6761 25.113 57.75 21.6067 57.75C18.5163 57.7473 15.4841 56.9087 12.8315 55.3231C12.6007 56.2398 12.4836 57.1814 12.4829 58.1268C12.4829 58.1804 12.4891 58.2326 12.4898 58.2849C15.3095 59.7381 18.4352 60.4976 21.6074 60.5C25.5351 60.5 29.502 59.3333 32.9821 56.8996C39.58 52.2858 42.6222 44.3836 41.448 36.8459L47.2732 32.7724L48.5141 24.9893L54.2905 26.5052C54.4073 26.5361 54.5222 26.5506 54.6322 26.5506C55.2509 26.5506 55.717 26.0865 55.726 25.3887L55.8043 19.5903L61.7272 21.2788C61.8557 21.3159 61.985 21.3338 62.1101 21.3338C62.7371 21.3338 63.2782 20.8911 63.4005 20.218L64.4517 14.4458L70.3127 15.708C70.3979 15.7259 70.4935 15.7348 70.5918 15.7348C70.9513 15.7348 71.3693 15.6221 71.6299 15.4406L73.438 14.1756C73.7701 13.9425 74.1255 13.4331 74.2287 13.0371L77.0598 1.54551C77.2695 0.750756 76.7848 0.0598185 75.9804 6.0031e-06L66.0502 0.006881C65.9845 0.00215969 65.9187 -0.000133539 65.8528 6.0031e-06C65.0608 6.0031e-06 64.0007 0.313506 63.3882 0.741818L32.1 22.6353C28.938 20.6658 25.2879 19.6208 21.5627 19.6185C17.6385 19.6185 13.675 20.7838 10.197 23.2169C1.04772 29.6141 -1.2671 42.3411 5.02353 51.6423C5.08747 51.7364 5.1569 51.8238 5.22153 51.9166H5.2229Z" fill="#040C22"/>
<path d="M73.6704 49.5H42.4283C42.0124 50.4471 41.5344 51.3658 40.9976 52.25H73.6704C75.187 52.25 76.4204 53.4834 76.4204 55V82.5C76.4204 84.0166 75.187 85.25 73.6704 85.25H18.1754C15.9926 85.25 12.7703 83.6921 11.4145 81.9816L3.61621 72.1414C2.50934 70.7431 2.45846 68.1581 3.50965 66.7171L5.24765 64.3383C4.86827 63.1831 4.59512 61.9957 4.43159 60.7908L1.28902 65.0966C-0.495039 67.5393 -0.417351 71.478 1.4609 73.8492L9.25921 83.6894C11.1381 86.0606 15.1504 88 18.1761 88H73.6704C76.6954 88 79.1704 85.525 79.1704 82.5V55C79.1704 51.975 76.6954 49.5 73.6704 49.5Z" fill="#040C22"/>
<path d="M32.6212 66.49C32.6212 66.0033 32.5387 65.5358 32.3764 65.0992C32.2182 64.6693 31.9745 64.2759 31.66 63.9429C31.3539 63.6174 30.9848 63.3576 30.5752 63.179C30.2159 63.0136 29.8325 62.9066 29.4394 62.8621C28.9457 62.8071 28.4491 62.7816 27.9523 62.7858H23.782C23.2045 62.7858 22.7768 62.9247 22.5094 63.2004C22.2433 63.4767 22.1079 63.9195 22.1079 64.5169V74.5902C22.1079 75.1436 22.2303 75.5726 22.4695 75.8648C22.7136 76.1618 23.0594 76.3124 23.4973 76.3124C23.905 76.3124 24.2412 76.1687 24.4963 75.8861C24.75 75.6049 24.8778 75.169 24.8778 74.5902V70.4906H25.6726C26.1126 70.4906 26.4797 70.5511 26.7643 70.67C27.0483 70.7883 27.3336 71.0138 27.6113 71.339C27.896 71.6704 28.2239 72.164 28.5876 72.8047L29.6161 74.573C29.8636 74.9992 30.052 75.3114 30.1936 75.5245C30.34 75.7486 30.5188 75.937 30.725 76.0848C30.9375 76.236 31.2008 76.3124 31.5081 76.3124C31.7659 76.3124 31.9962 76.2587 32.1942 76.1535C32.3936 76.0477 32.5531 75.8999 32.6693 75.7149C32.7862 75.5293 32.8453 75.3368 32.8453 75.1436C32.8453 74.9607 32.7538 74.6472 32.5655 74.1873C32.3464 73.6677 32.0902 73.1645 31.7989 72.6817C31.4711 72.1262 31.0962 71.5999 30.6783 71.1087C30.3277 70.6941 29.9564 70.36 29.5742 70.1139C30.5463 69.8595 31.2929 69.4525 31.7948 68.9039C32.3427 68.3023 32.6212 67.4904 32.6212 66.49ZM29.5102 67.6842C29.304 67.9317 28.9967 68.1091 28.5993 68.2136C28.1909 68.3215 27.6767 68.3759 27.0717 68.3759H24.8785V64.9899H27.1404C28.0012 64.9899 28.5835 65.0525 28.8702 65.1776C29.1658 65.3062 29.4002 65.5014 29.5666 65.7592C29.733 66.017 29.8168 66.3202 29.8168 66.6599C29.8168 67.0957 29.7137 67.4402 29.5102 67.6842ZM44.3437 65.0429C44.7768 65.0429 45.1068 64.939 45.3234 64.7335C45.5434 64.5272 45.6555 64.2495 45.6555 63.9099C45.6555 63.5771 45.5434 63.3021 45.3241 63.0945C45.1068 62.8896 44.7775 62.7851 44.3437 62.7851H37.576C37.1999 62.7851 36.885 62.8442 36.6396 62.9604C36.3877 63.0779 36.1873 63.2833 36.0758 63.5379C35.9603 63.7937 35.9012 64.1223 35.9012 64.5169V74.3578C35.9012 74.9559 36.0353 75.3994 36.2986 75.6744C36.5612 75.9494 36.9909 76.0889 37.576 76.0889H44.5424C44.9687 76.0889 45.2987 75.9824 45.5228 75.7713C45.7476 75.5568 45.8624 75.277 45.8624 74.9387C45.8624 74.5881 45.7476 74.3014 45.5221 74.0876C45.298 73.8759 44.9687 73.7693 44.5424 73.7693H38.6712V70.2582H43.8858C44.3073 70.2582 44.6283 70.1537 44.8367 69.9475C45.0477 69.7412 45.1536 69.4697 45.1536 69.1431C45.1536 68.8159 45.0457 68.5477 44.8305 68.3456C44.6201 68.1462 44.3011 68.0452 43.8858 68.0452H38.6718V65.0429H44.3437ZM51.031 75.8937C51.2717 75.6187 51.3947 75.213 51.3947 74.6885V67.3749L56.0147 74.7036C56.1529 74.9119 56.2918 75.1161 56.43 75.3169C56.573 75.5231 56.7297 75.7046 56.8947 75.8565C57.0638 76.0126 57.2488 76.1302 57.4454 76.203C57.6413 76.2759 57.862 76.3117 58.102 76.3117C59.0872 76.3117 59.587 75.6964 59.587 74.4829V64.1855C59.587 63.6562 59.4701 63.2492 59.2418 62.9769C59.0095 62.7019 58.6898 62.5617 58.2917 62.5617C57.9053 62.5617 57.5925 62.7019 57.3636 62.9783C57.1374 63.2499 57.0233 63.6562 57.0233 64.1855V71.6188L52.285 64.2007C52.1462 63.9738 52.0121 63.7559 51.8828 63.5475C51.7693 63.3597 51.6376 63.1836 51.4896 63.0216C51.3576 62.8826 51.201 62.7693 51.0276 62.6875C50.8281 62.5996 50.6117 62.5567 50.3937 62.5617C50.0809 62.5617 49.7867 62.6531 49.5178 62.8332C49.2557 63.0039 49.0519 63.2504 48.9335 63.54C48.8358 63.7978 48.7891 64.1409 48.7891 64.5877V74.6871C48.7891 75.2062 48.9073 75.6097 49.1411 75.8868C49.3803 76.1687 49.6994 76.3117 50.0912 76.3117C50.4714 76.3117 50.7877 76.1714 51.031 75.8937ZM66.4984 75.8765C66.7555 76.1659 67.0938 76.3124 67.5022 76.3124C67.9043 76.3124 68.2378 76.168 68.4922 75.8806C68.7452 75.5974 68.873 75.1629 68.873 74.5902V65.1852H71.568C72.0287 65.1852 72.3834 65.0765 72.6199 64.8607C72.8605 64.6407 72.9829 64.3478 72.9829 63.9903C72.9829 63.6328 72.8619 63.3392 72.6254 63.1172C72.391 62.8972 72.0348 62.7858 71.5673 62.7858H63.4184C62.975 62.7858 62.6285 62.893 62.3892 63.1055C62.1445 63.3214 62.0207 63.6197 62.0207 63.9903C62.0207 64.3478 62.1397 64.6393 62.3741 64.8593C62.6051 65.0765 62.9571 65.1859 63.4184 65.1859H66.1127V74.5902C66.1127 75.1574 66.2433 75.5898 66.4984 75.8765Z" fill="#040C22"/>
</svg>
