<svg width="91" height="92" viewBox="0 0 91 92" fill="none" xmlns="http://www.w3.org/2000/svg">
<circle cx="60" cy="61" r="31" fill="#32A7E2"/>
<path d="M76.1775 77.5511H75.7261C77.8777 73.2451 78.9982 68.4976 78.9989 63.684C79.0257 60.576 78.5493 57.4843 77.5882 54.5286L76.7418 51.9893C76.4824 51.2039 75.9779 50.5225 75.3025 50.0451C74.627 49.5677 73.8163 49.3196 72.9894 49.3372C72.6351 49.3429 72.2834 49.3999 71.9455 49.5065V49.3372C71.9455 48.2148 71.4996 47.1383 70.7059 46.3447C69.9122 45.551 68.8358 45.1051 67.7134 45.1051H66.0488C65.7577 44.2819 65.2192 43.5689 64.507 43.0637C63.7947 42.5586 62.9437 42.2862 62.0706 42.2837H60.6599V38.0516C60.6586 37.3608 60.4883 36.6808 60.1637 36.0709C59.8391 35.4611 59.3701 34.94 58.7978 34.5531C59.0891 32.9137 59.2402 31.2525 59.2492 29.5875C59.2412 23.1699 57.1494 16.9286 53.2886 11.8023C49.4277 6.67601 44.0067 2.94206 37.8409 1.16218C31.6751 -0.6177 25.0981 -0.347256 19.0993 1.93283C13.1005 4.21291 8.00427 8.37932 4.57736 13.8053C1.15044 19.2312 -0.421851 25.6233 0.0970131 32.0198C0.615877 38.4163 3.19784 44.4714 7.45447 49.2741C11.7111 54.0767 17.4122 57.3673 23.7001 58.6507C29.988 59.9342 36.5226 59.141 42.3209 56.3907L46.5529 63.9097L46.9762 66.8721C47.291 69.1202 48.1108 71.2677 49.3739 73.1538C50.637 75.0399 52.3106 76.6156 54.2695 77.7627C54.0662 77.8898 53.8986 78.0666 53.7826 78.2764C53.6666 78.4862 53.6059 78.7221 53.6064 78.9618V86.0153C53.6064 86.3894 53.755 86.7482 54.0196 87.0128C54.2842 87.2773 54.643 87.426 55.0171 87.426H76.1775C76.5517 87.426 76.9105 87.2773 77.1751 87.0128C77.4396 86.7482 77.5882 86.3894 77.5882 86.0153V78.9618C77.5882 78.5877 77.4396 78.2288 77.1751 77.9643C76.9105 77.6997 76.5517 77.5511 76.1775 77.5511ZM41.686 52.3138C41.5151 52.3988 41.3632 52.5177 41.2395 52.6632C41.1158 52.8087 41.023 52.9778 40.9666 53.1602C40.9029 53.391 40.9029 53.6347 40.9666 53.8655C37.4189 55.5348 33.5454 56.3972 29.6246 56.3907C24.0981 56.424 18.6949 54.758 14.1468 51.6184C9.59864 48.4787 6.12534 44.017 4.1973 38.8377C2.26926 33.6583 1.97964 28.0115 3.36767 22.6621C4.75569 17.3126 7.75429 12.519 11.9573 8.93051C16.1604 5.34199 21.3648 3.13194 26.8657 2.5997C32.3666 2.06746 37.8982 3.23874 42.7112 5.95489C47.5243 8.67105 51.3863 12.8008 53.7742 17.785C56.162 22.7691 56.9603 28.3666 56.061 33.8195C55.0034 33.9116 54.0189 34.3977 53.3029 35.1817C52.5869 35.9656 52.1917 36.99 52.1957 38.0516V44.0189C50.5305 46.6323 48.4202 48.9336 45.9605 50.8184C45.0196 50.8703 44.0986 51.1101 43.2519 51.5238L41.686 52.3138ZM52.1957 48.7306V53.7809L51.9136 53.4282C51.2584 52.6341 50.4406 51.9895 49.5154 51.5379C50.4692 50.6617 51.3646 49.7239 52.1957 48.7306ZM49.8258 66.4771L49.3743 63.2467C49.348 63.0688 49.2907 62.8969 49.2051 62.7388L44.2958 54.1618L44.5357 54.0489C45.4013 53.6175 46.3886 53.4956 47.3331 53.7035C48.2777 53.9114 49.1225 54.4366 49.727 55.1916L52.1957 58.2951V63.4442H55.0171V38.0516C55.0171 37.6775 55.1657 37.3187 55.4303 37.0541C55.6949 36.7896 56.0537 36.6409 56.4278 36.6409C56.802 36.6409 57.1608 36.7896 57.4253 37.0541C57.6899 37.3187 57.8385 37.6775 57.8385 38.0516V57.8014H60.6599V45.1051H62.0706C62.4447 45.1051 62.8036 45.2537 63.0681 45.5183C63.3327 45.7829 63.4813 46.1417 63.4813 46.5158V57.8014H66.3027V47.9265H67.7134C68.0875 47.9265 68.4463 48.0751 68.7109 48.3397C68.9754 48.6042 69.1241 48.9631 69.1241 49.3372V59.2121H71.9455V53.2025C71.9377 52.9486 72.0228 52.7006 72.1847 52.5049C72.3467 52.3093 72.5745 52.1794 72.8253 52.1396C73.0762 52.0998 73.333 52.1528 73.5476 52.2888C73.7621 52.4247 73.9198 52.6342 73.991 52.878L74.8374 55.4173C75.7504 58.0787 76.2268 60.8704 76.2481 63.684C76.2233 68.5502 74.9404 73.3272 72.5238 77.5511H59.6301L55.9059 75.421C54.2725 74.4986 52.8741 73.2116 51.8195 71.6603C50.7649 70.109 50.0826 68.3353 49.8258 66.4771ZM74.7669 84.6046H56.4278V80.3725H74.7669V84.6046Z" fill="#040C22"/>
<path d="M48.3445 44.5831L46.1438 42.8056C44.1613 45.2821 41.6474 47.2812 38.788 48.6549C35.9286 50.0286 32.7969 50.7419 29.6246 50.7419C26.4523 50.7419 23.3206 50.0286 20.4612 48.6549C17.6018 47.2812 15.0879 45.2821 13.1054 42.8056L10.9047 44.5831C13.1515 47.3891 16.0005 49.6541 19.2408 51.2106C22.4811 52.767 26.0299 53.5752 29.6246 53.5752C33.2193 53.5752 36.7681 52.767 40.0084 51.2106C43.2487 49.6541 46.0976 47.3891 48.3445 44.5831ZM29.6246 8.42696C32.7986 8.42052 35.933 9.13152 38.7935 10.5068C41.654 11.8821 44.1667 13.8862 46.1438 16.3692L48.3445 14.5917C46.0976 11.7857 43.2487 9.52068 40.0084 7.96421C36.7681 6.40773 33.2193 5.59961 29.6246 5.59961C26.0299 5.59961 22.4811 6.40773 19.2408 7.96421C16.0005 9.52068 13.1515 11.7857 10.9047 14.5917L13.1054 16.3692C15.0824 13.8862 17.5952 11.8821 20.4557 10.5068C23.3162 9.13152 26.4506 8.42052 29.6246 8.42696ZM18.339 33.8195C18.339 32.3229 17.7445 30.8877 16.6863 29.8294C15.6281 28.7712 14.1928 28.1767 12.6963 28.1767C12.1382 28.1767 11.5927 28.0112 11.1288 27.7012C10.6648 27.3912 10.3032 26.9505 10.0896 26.435C9.87608 25.9195 9.82021 25.3522 9.92907 24.8049C10.0379 24.2576 10.3066 23.7549 10.7012 23.3603C11.0958 22.9657 11.5985 22.697 12.1458 22.5881C12.6931 22.4793 13.2604 22.5351 13.7759 22.7487C14.2915 22.9622 14.7321 23.3238 15.0422 23.7878C15.3522 24.2518 15.5176 24.7973 15.5176 25.3553H18.339C18.339 24.2393 18.0081 23.1483 17.3881 22.2203C16.768 21.2924 15.8867 20.5691 14.8556 20.1421C13.8246 19.715 12.69 19.6032 11.5954 19.8209C10.5008 20.0387 9.49536 20.5761 8.7062 21.3653C7.91704 22.1544 7.37962 23.1599 7.16189 24.2544C6.94417 25.349 7.05591 26.4836 7.483 27.5147C7.91009 28.5458 8.63334 29.4271 9.56129 30.0471C10.4892 30.6671 11.5802 30.9981 12.6963 30.9981C13.2543 30.9981 13.7998 31.1636 14.2637 31.4736C14.7277 31.7836 15.0893 32.2242 15.3029 32.7398C15.5164 33.2553 15.5723 33.8226 15.4634 34.3699C15.3546 34.9172 15.0859 35.4199 14.6913 35.8145C14.2967 36.2091 13.794 36.4778 13.2467 36.5867C12.6994 36.6955 12.1321 36.6396 11.6166 36.4261C11.101 36.2126 10.6604 35.8509 10.3504 35.387C10.0403 34.923 9.87486 34.3775 9.87486 33.8195H7.05347C7.05347 35.316 7.64798 36.7513 8.7062 37.8095C9.76443 38.8677 11.1997 39.4623 12.6963 39.4623C14.1928 39.4623 15.6281 38.8677 16.6863 37.8095C17.7445 36.7513 18.339 35.316 18.339 33.8195ZM29.6246 22.5339V19.7125H22.5711C22.197 19.7125 21.8382 19.8611 21.5736 20.1257C21.309 20.3903 21.1604 20.7491 21.1604 21.1232V38.0516C21.1604 38.4257 21.309 38.7845 21.5736 39.0491C21.8382 39.3136 22.197 39.4623 22.5711 39.4623H29.6246V36.6409H23.9818V30.9981H29.6246V28.1767H23.9818V22.5339H29.6246ZM32.446 19.7125V38.0516C32.446 38.4257 32.5946 38.7845 32.8592 39.0491C33.1237 39.3136 33.4825 39.4623 33.8567 39.4623H40.9102V36.6409H35.2674V19.7125H32.446ZM45.1422 19.7125H42.3209V38.0516C42.3209 38.4257 42.4695 38.7845 42.734 39.0491C42.9986 39.3136 43.3574 39.4623 43.7315 39.4623H50.785V36.6409H45.1422V19.7125Z" fill="#040C22"/>
</svg>
